<svg width="26" height="26" viewBox="0 0 26 26" fill="none" xmlns="http://www.w3.org/2000/svg">
<g id="Group">
<path id="Vector" d="M13.0003 14.8465C15.5493 14.8465 17.6157 12.7801 17.6157 10.2311C17.6157 7.6821 15.5493 5.61572 13.0003 5.61572C10.4513 5.61572 8.38493 7.6821 8.38493 10.2311C8.38493 12.7801 10.4513 14.8465 13.0003 14.8465Z" stroke="#F0F0F0" stroke-width="1.5" stroke-linecap="round" stroke-linejoin="round"/>
<path id="Vector_2" d="M3.95427 25.0001C4.37799 22.9134 5.51008 21.0373 7.15872 19.6898C8.80735 18.3423 10.8712 17.6062 13.0004 17.6062C15.1297 17.6062 17.1935 18.3423 18.8421 19.6898C20.4908 21.0373 21.6229 22.9134 22.0466 25.0001" stroke="#F0F0F0" stroke-width="1.5" stroke-linecap="round" stroke-linejoin="round"/>
<path id="Vector_3" d="M23.1538 1.00049H2.84615C1.82655 1.00049 1 1.82704 1 2.84664V23.1543C1 24.1739 1.82655 25.0005 2.84615 25.0005H23.1538C24.1734 25.0005 25 24.1739 25 23.1543V2.84664C25 1.82704 24.1734 1.00049 23.1538 1.00049Z" stroke="#F0F0F0" stroke-width="1.5" stroke-linecap="round" stroke-linejoin="round"/>
</g>
</svg>
